HIERARCHY
ROOT Hips
{
	OFFSET 0.000000 0.000000 0.000000
	CHANNELS 6 Xposition Yposition Zposition Xrotation Zrotation Yrotation
	JOINT Spine1
	{
		OFFSET 0.000000 -0.000001 5.553894
		CHANNELS 6 Xposition Yposition Zposition Xrotation Zrotation Yrotation
		JOINT Neck
		{
			OFFSET 0.000000 -0.000001 4.427760
			CHANNELS 6 Xposition Yposition Zposition Xrotation Zrotation Yrotation
			JOINT Head
			{
				OFFSET 0.000000 -0.363272 2.815360
				CHANNELS 6 Xposition Yposition Zposition Xrotation Zrotation Yrotation
				End Site
				{
					OFFSET 0.000000 -0.000001 3.632711
				}
			}
		}
		JOINT LeftShoulder
		{
			OFFSET 0.731534 0.096024 3.575179
			CHANNELS 6 Xposition Yposition Zposition Xrotation Zrotation Yrotation
			JOINT LeftArm
			{
				OFFSET 2.610320 0.000000 0.000000
				CHANNELS 6 Xposition Yposition Zposition Xrotation Zrotation Yrotation
				JOINT LeftForeArm
				{
					OFFSET 5.118420 0.000000 0.000000
					CHANNELS 6 Xposition Yposition Zposition Xrotation Zrotation Yrotation
					JOINT LeftHand
					{
						OFFSET 4.756899 0.000000 0.000000
						CHANNELS 6 Xposition Yposition Zposition Xrotation Zrotation Yrotation
						End Site
						{
							OFFSET 2.724534 0.000000 0.000000
						}
					}
				}
			}
		}
		JOINT RightShoulder
		{
			OFFSET -0.721442 0.096024 3.575179
			CHANNELS 6 Xposition Yposition Zposition Xrotation Zrotation Yrotation
			JOINT RightArm
			{
				OFFSET -2.610320 0.000000 0.000000
				CHANNELS 6 Xposition Yposition Zposition Xrotation Zrotation Yrotation
				JOINT RightForeArm
				{
					OFFSET -5.118420 0.000000 0.000000
					CHANNELS 6 Xposition Yposition Zposition Xrotation Zrotation Yrotation
					JOINT RightHand
					{
						OFFSET -4.756900 0.000000 0.000000
						CHANNELS 6 Xposition Yposition Zposition Xrotation Zrotation Yrotation
						End Site
						{
							OFFSET -2.724534 0.000000 0.000000
						}
					}
				}
			}
		}
	}
	JOINT LeftUpLeg
	{
		OFFSET 1.816360 0.000000 0.000000
		CHANNELS 6 Xposition Yposition Zposition Xrotation Zrotation Yrotation
		JOINT LeftLeg
		{
			OFFSET 0.000000 0.000001 -7.638980
			CHANNELS 6 Xposition Yposition Zposition Xrotation Zrotation Yrotation
			JOINT LeftFoot
			{
				OFFSET 0.000000 0.000001 -8.008600
				CHANNELS 6 Xposition Yposition Zposition Xrotation Zrotation Yrotation
				JOINT LeftToeBase
				{
					OFFSET 0.000000 -2.724540 -1.180634
					CHANNELS 6 Xposition Yposition Zposition Xrotation Zrotation Yrotation
					End Site
					{
						OFFSET 0.000000 -0.726542 0.000000
					}
				}
			}
		}
	}
	JOINT RightUpLeg
	{
		OFFSET -1.816360 0.000000 0.000000
		CHANNELS 6 Xposition Yposition Zposition Xrotation Zrotation Yrotation
		JOINT RightLeg
		{
			OFFSET 0.000000 0.000001 -7.638980
			CHANNELS 6 Xposition Yposition Zposition Xrotation Zrotation Yrotation
			JOINT RightFoot
			{
				OFFSET 0.000000 0.000001 -8.008600
				CHANNELS 6 Xposition Yposition Zposition Xrotation Zrotation Yrotation
				JOINT RightToeBase
				{
					OFFSET 0.000000 -2.724540 -1.180634
					CHANNELS 6 Xposition Yposition Zposition Xrotation Zrotation Yrotation
					End Site
					{
						OFFSET 0.000000 -0.726542 0.000000
					}
				}
			}
		}
	}
}
MOTION
Frames: 7
Frame Time: 0.041667
-0.685280 -0.369185 15.019623 18.243169 -1.126550 -2.884231 0.000000 -0.000001 5.553896 -20.005139 -2.999119 -9.992826 -0.000000 -0.000000 4.427759 11.044762 -3.323064 -3.683945 0.000000 -0.363272 2.815357 3.039018 -1.808664 14.677084 0.731534 0.096025 3.575181 -5.325029 1.293456 -17.714512 2.610320 0.000000 0.000001 -11.903059 -8.900537 10.252951 5.118420 -0.000000 0.000001 -6.610368 1.286643 2.454012 4.756899 0.000001 0.000001 -7.471195 16.172824 -5.859909 -0.721442 0.096025 3.575178 -0.859806 -4.308461 13.932964 -2.610320 -0.000000 0.000004 19.979220 22.911668 -14.246827 -5.118420 0.000000 0.000004 72.206335 50.754337 104.883524 -4.756903 0.000002 0.000003 7.548904 -4.473694 32.723460 1.816360 0.000000 0.000000 -38.412738 13.918803 -24.706835 0.000000 0.000002 -7.638979 33.336975 13.499395 11.968162 -0.000000 0.000001 -8.008598 4.310895 18.185555 8.427197 0.000000 -2.724539 -1.180635 -0.000001 0.000001 -0.000002 -1.816360 0.000000 -0.000000 -27.588191 12.080772 29.636136 -0.000001 0.000002 -7.638983 31.240701 -17.035250 -23.808291 0.000001 0.000001 -8.008599 -3.243054 -26.709224 -11.212024 0.000000 -2.724540 -1.180634 0.000000 -0.000001 -0.000001 
-0.686666 -0.368706 15.020225 18.269019 -1.114353 -2.915559 0.000000 -0.000001 5.553893 -20.008402 -2.980573 -10.003504 -0.000001 -0.000000 4.427762 11.025560 -3.212264 -3.568787 -0.000000 -0.363271 2.815353 3.138105 -1.713370 14.643634 0.731533 0.096024 3.575181 -5.387117 1.269646 -17.693598 2.610321 -0.000000 -0.000001 -11.902356 -8.879132 10.231907 5.118419 0.000000 0.000000 -6.608892 1.288301 2.444346 4.756899 -0.000000 -0.000001 -7.472156 16.227519 -5.857627 -0.721442 0.096024 3.575181 -0.919595 -4.260252 13.934367 -2.610321 -0.000000 -0.000004 19.947006 22.885944 -14.251931 -5.118419 -0.000000 -0.000000 72.333254 50.793586 104.959660 -4.756903 0.000002 0.000002 7.554783 -4.492275 32.717637 1.816360 0.000000 -0.000003 -38.391486 13.848409 -24.647388 -0.000001 0.000001 -7.638978 33.324404 13.563035 11.981978 0.000000 0.000001 -8.008600 4.340326 18.203632 8.455624 0.000000 -2.724539 -1.180633 -0.000002 0.000000 0.000000 -1.816360 0.000001 -0.000000 -27.592270 12.091603 29.668320 0.000000 0.000001 -7.638980 31.235582 -17.090962 -23.821478 0.000001 0.000002 -8.008599 -3.258197 -26.675866 -11.191445 0.000000 -2.724540 -1.180634 -0.000000 -0.000002 0.000001 
-0.686960 -0.370022 15.020736 18.267051 -1.098085 -2.966256 0.000000 -0.000000 5.553893 -20.006437 -2.943768 -9.983477 0.000000 -0.000001 4.427761 11.081792 -3.091156 -3.366114 0.000001 -0.363272 2.815360 3.150715 -1.612471 14.502124 0.731534 0.096024 3.575182 -5.423225 1.239901 -17.708944 2.610320 -0.000000 0.000003 -11.893980 -8.877885 10.249673 5.118420 -0.000001 0.000000 -6.585288 1.289424 2.387310 4.756898 0.000000 0.000001 -7.432297 16.325674 -5.713171 -0.721442 0.096024 3.575178 -0.937625 -4.245406 13.969333 -2.610321 -0.000000 -0.000001 19.881065 22.884091 -14.306956 -5.118420 -0.000001 -0.000001 72.437872 50.847207 104.995717 -4.756902 0.000001 -0.000000 7.557902 -4.509505 32.743295 1.816360 0.000000 -0.000001 -38.327842 13.811967 -24.564924 -0.000000 0.000002 -7.638980 33.286333 13.597277 11.987161 0.000000 0.000002 -8.008599 4.379080 18.248677 8.446796 -0.000000 -2.724540 -1.180635 -0.000001 -0.000001 -0.000000 -1.816360 0.000000 -0.000001 -27.565564 12.097251 29.730738 -0.000001 0.000002 -7.638979 31.228468 -17.103169 -23.838470 0.000000 0.000001 -8.008601 -3.279588 -26.673863 -11.183765 -0.000000 -2.724539 -1.180633 -0.000002 -0.000001 0.000000 
-0.688733 -0.369333 15.021406 18.280264 -1.068458 -2.980113 0.000000 -0.000000 5.553896 -19.996461 -2.915010 -9.989316 0.000000 -0.000000 4.427760 11.213680 -2.987459 -3.140578 -0.000001 -0.363272 2.815363 3.003879 -1.509982 14.380477 0.731534 0.096024 3.575181 -5.462463 1.164934 -17.649028 2.610320 0.000000 -0.000000 -11.904449 -8.908543 10.169954 5.118421 -0.000000 -0.000003 -6.594177 1.321740 2.361093 4.756902 -0.000001 0.000003 -7.440070 16.345319 -5.695935 -0.721442 0.096025 3.575181 -0.959022 -4.229501 14.019921 -2.610320 -0.000000 -0.000003 19.808872 22.851646 -14.397048 -5.118421 -0.000001 0.000001 72.452885 50.851971 104.963048 -4.756902 0.000003 0.000004 7.615407 -4.446862 32.757772 1.816360 0.000000 -0.000000 -38.316040 13.748840 -24.520685 -0.000000 0.000002 -7.638978 33.275285 13.615811 11.990100 -0.000000 0.000001 -8.008598 4.406236 18.275100 8.495778 0.000000 -2.724539 -1.180633 -0.000002 0.000001 0.000001 -1.816360 0.000000 -0.000000 -27.552905 12.097932 29.753089 -0.000000 0.000001 -7.638978 31.224036 -17.140408 -23.855204 0.000001 0.000001 -8.008600 -3.290261 -26.676643 -11.221665 0.000000 -2.724540 -1.180634 0.000000 0.000002 0.000001 
-0.690357 -0.369239 15.022151 18.292172 -1.037591 -2.992028 -0.000000 -0.000000 5.553892 -19.996632 -2.873899 -9.939606 0.000001 -0.000001 4.427761 11.298710 -2.846249 -2.948039 0.000001 -0.363271 2.815365 2.936619 -1.374116 14.278639 0.731535 0.096024 3.575181 -5.515375 1.182260 -17.634232 2.610318 -0.000000 0.000000 -11.975278 -9.031799 10.075997 5.118420 -0.000000 -0.000004 -6.563236 1.357686 2.356535 4.756899 0.000000 -0.000002 -7.410561 16.355144 -5.697636 -0.721442 0.096024 3.575179 -0.954333 -4.223758 14.028161 -2.610321 -0.000000 0.000000 19.785595 22.853873 -14.480040 -5.118420 -0.000002 -0.000001 72.449422 50.879548 104.950166 -4.756902 0.000002 -0.000001 7.587327 -4.462821 32.758858 1.816360 0.000001 -0.000001 -38.309670 13.721279 -24.478110 -0.000000 0.000002 -7.638980 33.245051 13.614911 11.971638 -0.000000 0.000002 -8.008600 4.442247 18.295155 8.510848 -0.000000 -2.724540 -1.180633 -0.000001 -0.000003 0.000000 -1.816360 0.000001 -0.000002 -27.538274 12.097912 29.776288 0.000000 0.000001 -7.638980 31.213019 -17.163062 -23.869570 0.000000 0.000002 -8.008601 -3.313784 -26.681851 -11.182576 -0.000000 -2.724540 -1.180634 -0.000000 0.000001 -0.000000 
-0.692036 -0.369560 15.022922 18.298191 -1.006616 -2.988054 0.000000 -0.000001 5.553892 -19.991197 -2.806788 -9.881161 0.000000 -0.000001 4.427762 11.374733 -2.701961 -2.729457 0.000000 -0.363273 2.815359 2.876521 -1.241027 14.132449 0.731534 0.096024 3.575180 -5.560331 1.209471 -17.613135 2.610319 0.000000 -0.000002 -12.077766 -9.204444 9.953292 5.118422 -0.000000 0.000000 -6.486987 1.385308 2.340213 4.756899 0.000001 -0.000001 -7.326366 16.367008 -5.635694 -0.721442 0.096024 3.575177 -0.968034 -4.226542 14.043683 -2.610320 -0.000000 0.000004 19.793424 22.846628 -14.606322 -5.118420 0.000000 0.000003 72.403680 50.873274 104.915292 -4.756903 0.000000 0.000001 7.575388 -4.478266 32.786383 1.816360 0.000000 -0.000000 -38.289627 13.665208 -24.449606 0.000000 0.000001 -7.638980 33.215148 13.602457 11.970005 0.000000 0.000001 -8.008600 4.462616 18.336802 8.524150 0.000001 -2.724540 -1.180633 -0.000002 0.000003 -0.000001 -1.816360 0.000000 -0.000001 -27.519268 12.090916 29.781903 -0.000000 0.000001 -7.638978 31.216830 -17.224718 -23.893026 0.000001 0.000001 -8.008601 -3.320930 -26.671016 -11.174428 -0.000001 -2.724540 -1.180633 -0.000000 -0.000002 -0.000000 
-0.693867 -0.369801 15.024158 18.301647 -0.969140 -2.975598 -0.000000 -0.000000 5.553895 -19.977079 -2.761702 -9.818936 -0.000000 -0.000000 4.427758 11.430156 -2.533657 -2.459133 -0.000001 -0.363272 2.815358 2.880108 -1.095809 13.949229 0.731533 0.096025 3.575178 -5.619052 1.258341 -17.598809 2.610317 0.000000 -0.000001 -12.104004 -9.401645 9.837143 5.118419 0.000000 -0.000003 -6.512539 1.358650 2.325822 4.756900 -0.000001 -0.000001 -7.366954 16.328619 -5.758754 -0.721442 0.096024 3.575177 -1.044578 -4.095785 14.042047 -2.610320 0.000000 -0.000002 20.026641 22.697789 -14.720306 -5.118420 -0.000000 -0.000001 72.285681 50.803995 104.953329 -4.756903 0.000000 -0.000000 7.488946 -4.525821 32.766490 1.816360 0.000001 -0.000000 -38.282640 13.641433 -24.423954 0.000000 0.000001 -7.638980 33.167757 13.568844 11.938903 0.000000 0.000001 -8.008600 4.501601 18.372213 8.509103 0.000000 -2.724540 -1.180634 -0.000000 -0.000001 0.000001 -1.816360 0.000000 -0.000001 -27.494759 12.078636 29.777692 -0.000000 0.000001 -7.638982 31.192525 -17.225508 -23.889135 0.000001 0.000002 -8.008599 -3.325079 -26.699320 -11.186410 0.000000 -2.724540 -1.180633 -0.000002 0.000000 0.000000 
